<?xml version="1.0" encoding="utf-8"?>
<!-- Generator: Adobe Illustrator 22.0.1, SVG Export Plug-In . SVG Version: 6.00 Build 0)  -->
<svg version="1.1" id="Layer_1" xmlns="http://www.w3.org/2000/svg" xmlns:xlink="http://www.w3.org/1999/xlink" x="0px" y="0px"
	 viewBox="0 0 419.8 512" style="enable-background:new 0 0 419.8 512;" xml:space="preserve">
<style type="text/css">
	.st0{fill:#FFFFFF;}
</style>
<path class="st0" d="M413.2,102.7c0.2-6.1-1.6-11.3-4.6-16.2c-4.8-7.9-11.7-12.9-20.8-14.3c-4-0.6-8-0.6-12-0.7
	c-19.8-0.2-64.6-0.5-69.6-0.5c-0.2-3.8-0.2-20.8-0.6-24.3c-2.6-23.5-22.1-40.5-43-40.5c-27.2-0.1-64-0.3-91.2-0.3
	c-6.9,0-13.9,0-20.6,1.2c-18.5,3.5-33.5,20.5-35.3,39.3c-0.3,3.6-0.4,20.8-0.6,24.6c-3.9,0-54.5,0.6-78.4,0.9
	c-8.1,0.1-14.9,3.5-20.2,9.4c-5.1,5.8-9,12.2-8.5,20.5c0.4,6.5-0.5,29.8-0.5,33.2c0.9,0,14.1,0.1,19.8,0.1
	c2.1,15.5,45,319.2,48.5,343.7c1,6.9,2.1,13.9,3.2,20.8c0.5,3.1,1.9,4.4,5,4.5c8.6,0.2,177.3,0.7,252.8,0.7c6.3,0,6.8-10.9,7.6-16.9
	c3.3-23.3,46.8-336,49.1-352.9c5.7,0,18.9,0,20,0C413.5,134.1,412.8,112.6,413.2,102.7z M152.2,434.8c-2.1,4.8-7.1,10.6-18.6,11.7
	c-1,0.1-1.9,0.1-2.8,0.1c-5.6,0-10.2-1.6-13.9-4.7c-5.9-5-7.1-12.5-7.5-17.6c-0.5-7.3-5.3-47.1-10.3-89.2
	c-6.7-56.6-14.4-120.7-16.3-142.5c-1.2-13.6,10.1-25.3,25.8-26.7c15.9-1.4,28.7,7.6,29.9,20.9c0.5,6,1.9,28.2,3.7,59
	c3.4,56.8,8.2,134.7,11.5,174.1v0C154.2,424,154.6,429.5,152.2,434.8z M236.5,248.1c-1.5,56.9-3.6,134.9-3.7,174.4
	c0,4,0,9.6-2.9,14.7c-2.6,4.6-8,10-19.6,10c-6.9,0-12.3-2-16.2-6c-5.5-5.5-6-13-6-18.2c0.1-7.3-1.2-47.4-2.5-89.8
	c-1.8-56.9-3.8-121.5-3.8-143.4c0-13.7,12.3-24.4,28-24.4c15.9,0,28,10.1,28,23.4C237.9,195,237.3,217.3,236.5,248.1z M337.4,191.6
	c-0.5,6-3.1,28.2-6.6,58.8c-6.5,56.6-15.3,134-18.9,173.4c-0.4,4-0.9,9.5-4.2,14.4c-2.7,3.9-7.8,8.4-17.4,8.4c-0.9,0-1.9,0-3-0.1
	c-6.8-0.6-12.1-3.1-15.6-7.4c-5-6-4.9-13.5-4.3-18.7c0.7-7.3,3-47.3,5.4-89.7c3.2-56.9,6.8-121.3,8.7-143.1
	c1.2-13.6,14.4-23.2,30-21.8C327.5,167.3,338.6,178.3,337.4,191.6z M146.7,44.6c2.4-5.3,6.5-8.1,12.3-8.2
	c13.2-0.2,26.4-0.4,39.7-0.5c17.4-0.1,44.4,0,61.9,0c5.8,0,11.7,4,13.9,9.4c1.1,2.8,1.6,22.3,0.8,25.6c-40.1,0-89.7,0-130.1,0
	C145.2,66.5,144.8,48.7,146.7,44.6z"/>
</svg>
